<?xml version="1.0" encoding="UTF-8" standalone="no" ?>
<!DOCTYPE svg PUBLIC "-//W3C//DTD SVG 1.1//EN" "http://www.w3.org/Graphics/SVG/1.1/DTD/svg11.dtd">
<svg xmlns="http://www.w3.org/2000/svg" xmlns:xlink="http://www.w3.org/1999/xlink" version="1.1" width="1280" height="1024" viewBox="0 0 1280 1024" xml:space="preserve">
<desc>Created with Fabric.js 5.3.0</desc>
<defs>
</defs>
<g transform="matrix(1 0 0 1 640 512)" id="background-logo"  >
<rect style="stroke: none; stroke-width: 0; stroke-dasharray: none; stroke-linecap: butt; stroke-dashoffset: 0; stroke-linejoin: miter; stroke-miterlimit: 4; fill: rgb(255,255,255); fill-opacity: 0; fill-rule: nonzero; opacity: 1;"  paint-order="stroke"  x="-640" y="-512" rx="0" ry="0" width="1280" height="1024" />
</g>
<g transform="matrix(1.9211538461538462 0 0 1.9211538461538462 736.0115247518094 508.36726152806153)" id="text-logo"  >
<g style=""  paint-order="stroke"   >
		<g transform="matrix(1 0 0 1 0 0)" id="text-logo-path-0"  >
<path style="stroke: none; stroke-width: 1.212964708633193; stroke-dasharray: none; stroke-linecap: butt; stroke-dashoffset: 0; stroke-linejoin: miter; stroke-miterlimit: 4; fill: rgb(200,75,49); fill-rule: nonzero; opacity: 1;"  paint-order="stroke"  transform=" translate(-234.16, 26.799999999999997)" d="M 55.28 -11.76 L 43.84 -18.4 C 41.28 -14.56 36.96 -12 31.84 -12 C 23.68 -12 17.2 -18.56 17.2 -26.8 C 17.2 -35.04 23.76 -41.6 31.84 -41.6 C 36.96 -41.6 41.68 -38.88 44.32 -34.64 L 55.6 -41.2 C 50.56 -49.28 41.76 -54.48 31.84 -54.48 C 21.6 -54.48 12.56 -49.12 7.68 -40.64 C 5.2 -36.4 4 -31.76 4 -26.8 C 4 -16.88 9.28 -7.92 17.84 -2.88 C 22.08 -0.4 26.8 0.88 31.84 0.88 C 41.52 0.88 50.16 -4.08 55.28 -11.76 Z M 76.4 0 L 76.4 -53.6 L 63.6 -53.6 L 63.6 0 Z M 97.2 0 L 97.2 -33.12 L 116.72 0 L 132.4 0 L 132.4 -53.6 L 119.6 -53.6 L 119.6 -20.32 L 100 -53.6 L 84.4 -53.6 L 84.4 0 Z M 140.4 0 L 178.8 0 L 178.8 -11.2 L 153.2 -11.2 L 153.2 -21.2 L 174 -21.2 L 174 -32.4 L 153.2 -32.4 L 153.2 -42.4 L 178.8 -42.4 L 178.8 -53.6 L 140.4 -53.6 Z M 199.6 0 L 199.6 -25.44 L 210.08 0 L 224.08 0 L 234.64 -25.6 L 234.64 0 L 247.44 0 L 247.44 -53.6 L 232.24 -53.6 L 217.12 -16.8 L 201.92 -53.6 L 186.8 -53.6 L 186.8 0 Z M 269.52 0 L 273.52 -10.4 L 293.04 -10.4 L 297.04 0 L 311.12 0 L 290.32 -53.6 L 276.24 -53.6 L 255.44 0 Z M 277.92 -21.6 L 283.28 -35.44 L 288.64 -21.6 Z M 334.32 0 L 334.32 -42.48 L 348.72 -42.48 L 348.72 -53.68 L 307.12 -53.68 L 307.12 -42.48 L 321.52 -42.48 L 321.52 0 Z M 408 -11.76 L 396.56 -18.4 C 394 -14.56 389.68 -12 384.56 -12 C 376.4 -12 369.92 -18.56 369.92 -26.8 C 369.92 -35.04 376.48 -41.6 384.56 -41.6 C 389.68 -41.6 394.4 -38.88 397.04 -34.64 L 408.32 -41.2 C 403.28 -49.28 394.48 -54.48 384.56 -54.48 C 374.32 -54.48 365.28 -49.12 360.4 -40.64 C 357.92 -36.4 356.72 -31.76 356.72 -26.8 C 356.72 -16.88 362 -7.92 370.56 -2.88 C 374.8 -0.4 379.52 0.88 384.56 0.88 C 394.24 0.88 402.88 -4.08 408 -11.76 Z M 429.12 0 L 429.12 -21.2 L 451.52 -21.2 L 451.52 0 L 464.32 0 L 464.32 -53.6 L 451.52 -53.6 L 451.52 -32.4 L 429.12 -32.4 L 429.12 -53.6 L 416.32 -53.6 L 416.32 0 Z" stroke-linecap="round" />
</g>
</g>
</g>
<g transform="matrix(0.8746825020766451 0 0 0.8746825020766451 136.96938119823193 511.5732830665231)" id="logo-logo"  >
<g style=""  paint-order="stroke"   >
		<g transform="matrix(0.30049857960295223 0 0 -0.30049857960295223 0 0)"  >
<path style="stroke: none; stroke-width: 1; stroke-dasharray: none; stroke-linecap: butt; stroke-dashoffset: 0; stroke-linejoin: miter; stroke-miterlimit: 10; fill: rgb(45,66,99); fill-rule: nonzero; opacity: 1;"  paint-order="stroke"  transform=" translate(-4305.11, -1172.4691852963224)" d="M 4261.73 1031.52 C 4261.73 1002.46 4285.28 978.91 4314.33 978.91 C 4343.39 978.91 4366.94 1002.4599999999999 4366.94 1031.52 C 4366.94 1060.57 4343.389999999999 1084.12 4314.33 1084.12 C 4285.28 1084.12 4261.73 1060.57 4261.73 1031.52 z M 4008.1299999999997 1031.52 C 4008.1299999999997 1002.46 4031.68 978.91 4060.74 978.91 C 4089.79 978.91 4113.34 1002.4599999999999 4113.34 1031.52 C 4113.34 1060.57 4089.79 1084.12 4060.7400000000002 1084.12 C 4031.6800000000003 1084.12 4008.13 1060.57 4008.13 1031.52 z M 4261.73 1313.52 C 4261.73 1284.46 4285.28 1260.91 4314.33 1260.91 C 4343.39 1260.91 4366.94 1284.46 4366.94 1313.52 C 4366.94 1342.57 4343.389999999999 1366.1299999999999 4314.33 1366.1299999999999 C 4285.28 1366.1299999999999 4261.73 1342.57 4261.73 1313.52 z M 4008.1299999999997 1313.52 C 4008.1299999999997 1284.46 4031.68 1260.91 4060.74 1260.91 C 4089.79 1260.91 4113.34 1284.46 4113.34 1313.52 C 4113.34 1342.57 4089.79 1366.1299999999999 4060.7400000000002 1366.1299999999999 C 4031.6800000000003 1366.1299999999999 4008.13 1342.57 4008.13 1313.52 z M 4134.929999999999 1172.52 C 4134.929999999999 1143.46 4158.48 1119.91 4187.539999999999 1119.91 C 4216.589999999999 1119.91 4240.139999999999 1143.46 4240.139999999999 1172.52 C 4240.139999999999 1201.57 4216.589999999999 1225.12 4187.539999999999 1225.12 C 4158.479999999999 1225.12 4134.929999999999 1201.57 4134.929999999999 1172.52 z M 4311.629999999999 888.9300000000001 C 4518.839999999999 944.195 4610.329999999999 1117.3200000000002 4635.44 1174.5500000000002 L 4650.129999999999 1174.5500000000002 C 4647.5599999999995 1168.9900000000002 4644.539999999999 1162.7500000000002 4641.0599999999995 1155.9600000000003 C 4564.0599999999995 1005.6200000000002 4430.339999999999 891.0900000000003 4258.08 871.1250000000002 C 4410.68 888.0000000000002 4512.85 968.0000000000002 4577.13 1044.8200000000002 C 4619.85 1095.8600000000001 4645.88 1145.5500000000002 4659.04 1174.5500000000002 L 4705.53 1174.5500000000002 C 4687.88 1121.0100000000002 4649.33 1062.2500000000002 4614.929999999999 1024.89 C 4546.43 950.496 4432 877.91 4243.48 868.094 L 4241.12 867.672 C 4433.23 875.4300000000001 4550.49 943.094 4620.82 1019.47 C 4660.86 1062.96 4685.59 1107.17 4700.32 1140.52 C 4706.2 1153.83 4710.48 1165.41 4713.509999999999 1174.55 L 4732.15 1174.55 C 4709.49 1103.41 4601 852.742 4199.56 863.281 C 4195.570000000001 863.1289999999999 4191.56 863.0509999999999 4187.54 863.0509999999999 C 4016.62 863.0509999999999 3878.0699999999997 1001.5999999999999 3878.0699999999997 1172.52 C 3878.0699999999997 1343.43 4016.62 1481.98 4187.54 1481.98 C 4358.45 1481.98 4497 1343.43 4497 1172.52 C 4497 1045.73 4420.76 936.754 4311.63 888.9300000000001" stroke-linecap="round" />
</g>
</g>
</g>
</svg>